<svg xmlns="http://www.w3.org/2000/svg" viewBox="0 0 120.14648 39.473671" height="149.192" width="454.097"><g transform="translate(225.627 -37.626)"><path d="M-205.718 71.463l11.372-33.837h-7.714l-7.739 26.545h-.164l-7.738-26.545h-7.926l11.35 33.837h8.559zm20.597-21.151q2.391 0 3.892 1.524 1.5 1.525 1.595 4.057h-11.139q.164-2.485 1.736-4.033 1.57-1.548 3.916-1.548zm5.58 13.273q-.492 1.5-1.922 2.368-1.407.844-3.354.844-2.696 0-4.361-1.712-1.665-1.735-1.665-4.525v-.423h17.821v-2.11q0-5.886-3.306-9.356-3.283-3.47-8.864-3.47-5.675 0-9.051 3.657-3.377 3.635-3.377 9.802t3.4 9.708q3.4 3.541 9.286 3.541 4.713 0 7.926-2.275 3.212-2.298 3.775-6.05h-6.308zm8.791 7.878h6.848v-14.42q0-2.72 1.454-4.245 1.453-1.524 4.056-1.524.75 0 1.43.117.68.094 1.103.258v-6.05q-.375-.117-.891-.188-.493-.07-1.102-.07-2.275 0-3.893 1.266-1.595 1.267-2.251 3.658h-.14v-4.62h-6.613v25.818zm20.2-31.563v5.746h-3.494v5.182h3.494v13.67c0 2.518.64 4.323 1.922 5.418 1.065.908 2.72 1.439 4.959 1.593a8.318 8.318 0 0 1 2.039-5.272c-.556-.11-.998-.321-1.323-.636-.5-.5-.75-1.243-.75-2.228V50.828h4.783v-5.182h-4.783V39.9h-5.816z" style="line-height:30.01495361px"/><circle r="5.405" cy="71.695" cx="-135.361" fill="#7d3090"/><path d="M-132.745 45.797l9.288 12.958-5.481 7.664a8.318 8.318 0 0 1 1.895 5.276 8.318 8.318 0 0 1-.002.027h3l18.539-25.925h-8.686l-4.925 6.887-4.936-6.887zm19.93 15.675l-4.343 6.071 2.995 4.179h8.661l.022-.015z" fill="#7d3090"/></g></svg>